<svg xmlns="http://www.w3.org/2000/svg" xmlns:xlink="http://www.w3.org/1999/xlink" version="1.1" x="0px" y="0px" viewBox="0 0 100 125" style="enable-background:new 0 0 100 100;" xml:space="preserve"><g><path d="M22.7812366,79.1270218c-0.6308212,0.1043701-1.2727947,0.1572723-1.9081192,0.1572723   c-5.704196,0-10.5212536-4.0898438-11.453722-9.7248764l-1.048811-6.3381882v14.1958771   c0,5.029068,4.0768538,9.1059265,9.1059227,9.1059265h61.6682968c5.029068,0,9.1059189-4.0768585,9.1059189-9.1059265v-9.2003708   c-0.4101028,0.1154251-0.8283997,0.2136536-1.2582626,0.2847672L22.7812366,79.1270218z"/><path d="M96.3572617,53.8293152l-5.0588455-30.5724583c-0.8316803-5.0252838-5.1259689-8.6728916-10.2126465-8.6728916   c-0.5681,0-1.1394653,0.0474777-1.702652,0.1407957L15.1709671,25.3499756   c-5.6375847,0.9323673-9.4652805,6.2785358-8.5320959,11.9161186l5.0588465,30.5708199   c0.830862,5.0261078,5.1259708,8.6737137,10.2118301,8.6737137c0.5672779,0,1.1402855-0.0474777,1.7042904-0.1407928   l64.2105103-10.6252213c2.7324295-0.4518585,5.1226959-1.9400406,6.7353058-4.191143   C96.1706238,59.3023643,96.8091202,56.5584717,96.3572617,53.8293152z M21.1087685,51.0446968   c-0.1890926-1.141922,0.5836487-2.2208138,1.7255726-2.4099083l21.8512707-3.6165009   c1.1329193-0.1890945,2.2208176,0.5844688,2.4099083,1.7255745c0.1890945,1.141922-0.5836487,2.2208176-1.7255745,2.4099083   l-21.8512669,3.6165009c-0.1154213,0.0196457-0.2308407,0.027832-0.3446255,0.027832   C22.1671963,52.7981033,21.2790337,52.0712013,21.1087685,51.0446968z M56.2571068,59.5808868L25.4890079,64.674118   c-0.1154194,0.0196457-0.2308407,0.0278244-0.3446236,0.0278244c-1.0068569,0-1.8950214-0.7268982-2.0652866-1.7534027   c-0.1890926-1.1411057,0.5836506-2.2199974,1.7255745-2.4099083l30.7681007-5.0932274   c1.1345558-0.1899109,2.2199974,0.5828323,2.4099083,1.7255745C58.1709557,58.3120842,57.3982124,59.390976,56.2571068,59.5808868z    M60.3058205,34.4520111l-38.757473,6.4160576c-0.1154213,0.0188255-0.2308407,0.027832-0.3446236,0.027832   c-1.0068588,0-1.8950214-0.7277222-2.0652866-1.7534065c-0.1890926-1.1419258,0.5836506-2.2208176,1.7255745-2.4099083   l38.7574768-6.4160595c1.1394691-0.1825447,2.2199974,0.5836506,2.4099083,1.7255726   C62.2196693,33.1840248,61.4469261,34.2629166,60.3058205,34.4520111z"/></g><text x="0" y="115" fill="#000000" font-size="5px" font-weight="bold" font-family="'Helvetica Neue', Helvetica, Arial-Unicode, Arial, Sans-serif">Created by Bence Bezeredy</text><text x="0" y="120" fill="#000000" font-size="5px" font-weight="bold" font-family="'Helvetica Neue', Helvetica, Arial-Unicode, Arial, Sans-serif">from the Noun Project</text></svg>