<?xml version="1.0" encoding="utf-8"?>
<!-- Generator: Adobe Illustrator 17.1.0, SVG Export Plug-In . SVG Version: 6.00 Build 0)  -->
<!DOCTYPE svg PUBLIC "-//W3C//DTD SVG 1.1//EN" "http://www.w3.org/Graphics/SVG/1.1/DTD/svg11.dtd">
<svg version="1.1" id="Layer_1" xmlns="http://www.w3.org/2000/svg" xmlns:xlink="http://www.w3.org/1999/xlink" x="0px" y="0px"
	 viewBox="0 0 522 108" enable-background="new 0 0 522 108" xml:space="preserve">
<g>
	<g>
		<g>
			<path fill="#FFFFFF" d="M21,37.7L21,37.7c6.8-0.1,13.2,3.4,18.8,9.5c5.6,6.2,12,9.7,18.8,9.6c5.7-0.1,11.1-2.6,15.9-7.1v-15
				c0-9.5-7.7-17.2-17.2-17.2H34.5c-9.5,0-17.2,7.7-17.2,17.2v3.4C18.6,37.8,19.8,37.7,21,37.7z"/>
			<path fill="#FFFFFF" d="M50.3,61.9c-5.6-6.1-12-9.6-18.8-9.5c0,0-6.5-0.3-14.2,5.4c0.2,9.3,7.8,16.8,17.2,16.8h22.9
				c3.7,0,7.2-1.2,10-3.2C61.3,71,55.4,67.6,50.3,61.9z"/>
		</g>
	</g>
	<g>
		<path fill="#FFFFFF" d="M91.3,36.8c-0.5-1.4-0.8-2.3-1.4-2.6c-0.4-0.3-1.1-0.3-1.5-0.3c-0.4,0-0.6-0.1-0.6-0.4
			c0-0.3,0.3-0.4,0.9-0.4c2,0,4.1,0.1,4.5,0.1c0.4,0,2.3-0.1,4.5-0.1c0.6,0,0.8,0.1,0.8,0.4c0,0.3-0.3,0.4-0.7,0.4
			c-0.3,0-0.7,0-1,0.2c-0.4,0.1-0.4,0.4-0.4,0.8c0,0.5,0.4,1.7,0.8,3.4c0.7,2.5,4.2,13.8,4.8,15.5h0.1l7.4-19.2
			c0.4-1.1,0.8-1.4,1.1-1.4c0.4,0,0.8,0.6,1.3,1.8l7.8,18.5h0.1c0.8-2.2,3.7-12,5.1-16.4c0.3-0.9,0.4-1.6,0.4-2.2
			c0-0.6-0.4-1.1-1.9-1.1c-0.4,0-0.7-0.2-0.7-0.4c0-0.3,0.3-0.4,0.9-0.4c2,0,3.8,0.1,4.1,0.1c0.3,0,1.9-0.1,3.2-0.1
			c0.4,0,0.7,0.1,0.7,0.3c0,0.3-0.2,0.4-0.5,0.4c-0.4,0-0.9,0-1.4,0.2c-0.9,0.4-1.4,1.8-2.2,3.9c-1.8,4.7-5.8,16.6-7.7,22.2
			c-0.4,1.3-0.7,1.8-1.2,1.8c-0.5,0-0.8-0.4-1.4-1.8l-7.9-18.5h-0.1c-0.7,1.6-5.9,14.9-7.5,18.3c-0.7,1.5-0.9,2-1.5,2
			c-0.5,0-0.7-0.4-1.1-1.4L91.3,36.8z"/>
		<path fill="#FFFFFF" d="M137.2,52.1c-0.2,0-0.3,0-0.4,0.3l-2.1,5c-0.4,0.9-0.6,1.9-0.6,2.3c0,0.7,0.4,1.1,1.5,1.1h0.6
			c0.5,0,0.6,0.2,0.6,0.4c0,0.3-0.2,0.4-0.6,0.4c-1.3,0-3.1-0.1-4.3-0.1c-0.4,0-2.5,0.1-4.5,0.1c-0.5,0-0.7-0.1-0.7-0.4
			c0-0.2,0.1-0.4,0.4-0.4c0.4,0,0.8,0,1.1,0c1.8-0.3,2.4-1.4,3.2-3.3l10.1-23.6c0.4-1.1,0.8-1.5,1.1-1.5c0.6,0,0.8,0.4,1.1,1.2
			c0.9,2.1,7.4,17.4,9.9,23.1c1.5,3.4,2.6,3.9,3.3,4c0.6,0.1,1,0.1,1.5,0.1c0.4,0,0.5,0.1,0.5,0.4c0,0.3-0.2,0.4-1.7,0.4
			c-1.4,0-4.2,0-7.5-0.1c-0.7,0-1.1,0-1.1-0.3c0-0.2,0.1-0.4,0.5-0.4c0.3,0,0.5-0.4,0.4-0.8l-3-7.5c-0.1-0.2-0.2-0.3-0.4-0.3H137.2z
			 M145.5,50c0.2,0,0.2-0.1,0.2-0.2l-3.7-9.5c0-0.1-0.1-0.4-0.2-0.4c-0.1,0-0.2,0.2-0.2,0.4l-3.8,9.5c-0.1,0.2,0,0.3,0.1,0.3H145.5z
			"/>
		<path fill="#FFFFFF" d="M165.7,35.4l-5.8,0.1c-2.3,0-3.2,0.3-3.8,1.1c-0.4,0.5-0.6,1-0.7,1.3c-0.1,0.3-0.2,0.5-0.4,0.5
			c-0.3,0-0.4-0.2-0.4-0.6c0-0.6,0.8-4.2,0.8-4.5c0.1-0.5,0.2-0.7,0.4-0.7c0.3,0,0.7,0.3,1.7,0.4c1.1,0.1,2.6,0.2,3.9,0.2h15.8
			c1.2,0,2.1-0.1,2.6-0.2c0.6-0.1,0.9-0.2,1.1-0.2c0.3,0,0.3,0.2,0.3,0.8c0,0.8-0.1,3.6-0.1,4.5c0,0.4-0.1,0.6-0.4,0.6
			c-0.3,0-0.4-0.2-0.4-0.8l0-0.4c-0.1-1-1.1-2.1-4.6-2.2l-4.9-0.1v15.2c0,3.4,0,6.4,0.2,8c0.1,1.1,0.4,1.8,1.5,1.9
			c0.5,0.1,1.4,0.1,2,0.1c0.4,0,0.6,0.2,0.6,0.4c0,0.3-0.3,0.4-0.8,0.4c-2.6,0-5.2-0.1-6.3-0.1c-0.9,0-3.5,0.1-5.1,0.1
			c-0.5,0-0.8-0.1-0.8-0.4c0-0.2,0.1-0.4,0.6-0.4c0.6,0,1.1,0,1.4-0.1c0.8-0.2,1-0.9,1.1-2c0.2-1.6,0.2-4.5,0.2-8V35.4z"/>
		<path fill="#FFFFFF" d="M188.5,44c0-5.7,0-6.8,0-7.9c-0.1-1.3-0.4-1.7-1.7-2c-0.3-0.1-1-0.1-1.5-0.1c-0.4,0-0.7-0.1-0.7-0.4
			c0-0.3,0.3-0.4,0.9-0.4c2,0,4.5,0.1,5.6,0.1c1.2,0,9.8,0,10.6,0c0.7,0,1.3-0.2,1.6-0.2c0.2,0,0.4-0.2,0.6-0.2
			c0.2,0,0.3,0.2,0.3,0.4c0,0.3-0.2,0.7-0.3,2.4c0,0.4-0.1,2-0.2,2.5c0,0.2-0.1,0.6-0.4,0.6c-0.3,0-0.3-0.2-0.3-0.5
			c0-0.3,0-0.9-0.3-1.4c-0.3-0.7-0.6-1.2-2.6-1.4c-0.7-0.1-5.3-0.2-6.1-0.2c-0.2,0-0.3,0.1-0.3,0.4v9.3c0,0.2,0,0.4,0.3,0.4
			c0.9,0,5.9,0,6.8-0.1c0.9-0.1,1.5-0.2,1.9-0.6c0.3-0.3,0.4-0.5,0.6-0.5c0.2,0,0.3,0.2,0.3,0.4c0,0.2-0.1,0.8-0.3,2.7
			c-0.1,0.8-0.2,2.3-0.2,2.5c0,0.3,0,0.8-0.4,0.8c-0.3,0-0.4-0.1-0.4-0.3c0-0.4,0-0.9-0.1-1.4c-0.2-0.8-0.7-1.3-2.2-1.5
			c-0.7-0.1-5.1-0.2-6.1-0.2c-0.2,0-0.2,0.2-0.2,0.4v3c0,1.3,0,4.5,0,5.6c0.1,2.6,1.3,3.1,5.3,3.1c1,0,2.6,0,3.7-0.5
			c1-0.4,1.4-1.2,1.7-2.8c0.1-0.4,0.2-0.6,0.4-0.6c0.3,0,0.4,0.5,0.4,0.9c0,0.8-0.3,3.4-0.5,4.1c-0.3,1-0.6,1-2.1,1
			c-2.9,0-5.3,0-7.2-0.1c-1.9,0-3.4-0.1-4.5-0.1c-0.4,0-1.3,0-2.2,0c-0.9,0-1.9,0.1-2.7,0.1c-0.5,0-0.8-0.1-0.8-0.4
			c0-0.2,0.1-0.4,0.6-0.4c0.6,0,1,0,1.4-0.1c0.8-0.2,1-0.9,1.1-2c0.2-1.6,0.2-4.5,0.2-8V44z"/>
		<path fill="#FFFFFF" d="M213,44c0-5.7,0-6.8,0-7.9c-0.1-1.3-0.4-1.7-1.7-2c-0.3-0.1-1-0.1-1.5-0.1c-0.4,0-0.7-0.1-0.7-0.4
			c0-0.3,0.3-0.4,0.9-0.4c2,0,4.5,0.1,5.3,0.1c1.3,0,4.9-0.1,6-0.1c2.5,0,5.3,0.2,7.4,1.6c1.1,0.7,2.7,2.6,2.7,5.2
			c0,2.8-1.6,5.3-5.4,8.3c3.4,4.2,6.2,7.6,8.5,10c2.2,2.2,3.5,2.3,4.1,2.5c0.4,0.1,0.6,0.1,0.9,0.1c0.3,0,0.5,0.2,0.5,0.4
			c0,0.3-0.3,0.4-0.8,0.4h-3.7c-2.2,0-3.2-0.2-4.2-0.7c-1.7-0.8-3.1-2.6-5.3-5.5c-1.5-2-3.2-4.5-3.7-5.1c-0.2-0.2-0.4-0.3-0.7-0.3
			l-3.5-0.1c-0.2,0-0.3,0.1-0.3,0.3v0.5c0,3.5,0,6.4,0.2,8c0.1,1.1,0.3,1.8,1.5,2c0.6,0.1,1.4,0.1,1.9,0.1c0.3,0,0.5,0.2,0.5,0.4
			c0,0.3-0.3,0.4-0.8,0.4c-2.3,0-5.5-0.1-6-0.1c-0.8,0-3.2,0.1-4.8,0.1c-0.5,0-0.8-0.1-0.8-0.4c0-0.2,0.1-0.4,0.6-0.4
			c0.6,0,1,0,1.4-0.1c0.8-0.2,1-0.9,1.1-2c0.2-1.6,0.2-4.5,0.2-8V44z M217.9,46.9c0,0.4,0.1,0.5,0.4,0.7c0.8,0.3,2,0.4,3,0.4
			c1.5,0,2.1-0.1,2.7-0.6c1.2-0.8,2.5-2.5,2.5-5.6c0-5.3-3.6-6.7-5.9-6.7c-1,0-1.9,0-2.3,0.1c-0.3,0.1-0.4,0.2-0.4,0.5V46.9z"/>
		<path fill="#FFFFFF" d="M256.5,44c0-5.7,0-6.8,0-7.9c-0.1-1.3-0.4-1.7-1.7-2c-0.3-0.1-1-0.1-1.5-0.1c-0.4,0-0.7-0.1-0.7-0.4
			c0-0.3,0.3-0.4,0.9-0.4c2,0,4.5,0.1,5.6,0.1c1.6,0,4.7-0.1,6.4-0.1c4.9,0,6.6,1.6,7.2,2.1c0.8,0.8,1.9,2.5,1.9,4.5
			c0,5.3-4.2,9.1-9.8,9.1c-0.2,0-1,0-1.1,0c-0.2,0-0.5-0.1-0.5-0.4c0-0.3,0.4-0.5,1.3-0.5c2.2,0,5.2-2.3,5.2-6.1
			c0-1.2-0.1-3.7-2.3-5.6c-1.4-1.2-3-1.4-3.9-1.4c-0.6,0-1.3,0-1.7,0.2c-0.2,0.1-0.3,0.3-0.3,0.7v14.9c0,3.4,0,6.4,0.2,8
			c0.1,1.1,0.4,1.8,1.5,1.9c0.6,0.1,1.4,0.1,2,0.1c0.4,0,0.6,0.2,0.6,0.4c0,0.3-0.3,0.4-0.7,0.4c-2.6,0-5.3-0.1-6.4-0.1
			c-0.9,0-3.4,0.1-4.9,0.1c-0.5,0-0.8-0.1-0.8-0.4c0-0.2,0.1-0.4,0.6-0.4c0.6,0,1,0,1.4-0.1c0.8-0.2,1-0.9,1.1-2
			c0.2-1.6,0.2-4.5,0.2-8V44z"/>
		<path fill="#FFFFFF" d="M282.8,44c0-5.7,0-6.8,0-7.9c-0.1-1.3-0.4-1.7-1.7-2c-0.3-0.1-1-0.1-1.5-0.1c-0.4,0-0.7-0.1-0.7-0.4
			c0-0.3,0.3-0.4,0.9-0.4c2,0,4.5,0.1,5.3,0.1c1.3,0,4.9-0.1,6-0.1c2.5,0,5.3,0.2,7.4,1.6c1.1,0.7,2.7,2.6,2.7,5.2
			c0,2.8-1.6,5.3-5.4,8.3c3.4,4.2,6.2,7.6,8.5,10c2.2,2.2,3.5,2.3,4.1,2.5c0.4,0.1,0.6,0.1,0.9,0.1s0.5,0.2,0.5,0.4
			c0,0.3-0.3,0.4-0.8,0.4h-3.7c-2.2,0-3.2-0.2-4.2-0.7c-1.7-0.8-3.1-2.6-5.3-5.5c-1.5-2-3.2-4.5-3.7-5.1c-0.2-0.2-0.4-0.3-0.7-0.3
			l-3.5-0.1c-0.2,0-0.3,0.1-0.3,0.3v0.5c0,3.5,0,6.4,0.2,8c0.1,1.1,0.3,1.8,1.5,2c0.6,0.1,1.4,0.1,1.9,0.1c0.3,0,0.5,0.2,0.5,0.4
			c0,0.3-0.3,0.4-0.8,0.4c-2.2,0-5.5-0.1-6-0.1c-0.8,0-3.2,0.1-4.8,0.1c-0.5,0-0.8-0.1-0.8-0.4c0-0.2,0.1-0.4,0.6-0.4
			c0.6,0,1,0,1.4-0.1c0.8-0.2,1-0.9,1.1-2c0.2-1.6,0.2-4.5,0.2-8V44z M287.8,46.9c0,0.4,0.1,0.5,0.4,0.7c0.8,0.3,2,0.4,3,0.4
			c1.5,0,2.1-0.1,2.7-0.6c1.2-0.8,2.5-2.5,2.5-5.6c0-5.3-3.6-6.7-5.9-6.7c-1,0-1.9,0-2.3,0.1c-0.3,0.1-0.4,0.2-0.4,0.5V46.9z"/>
		<path fill="#FFFFFF" d="M308.6,47.3c0-6.4,4.5-14.7,16.3-14.7c9.8,0,15.9,5.4,15.9,14c0,8.6-6.3,15.4-16.3,15.4
			C313.2,62,308.6,54,308.6,47.3z M335,48c0-8.3-5-13.4-11.3-13.4c-4.3,0-9.4,2.3-9.4,11.6c0,7.7,4.4,13.8,11.7,13.8
			C328.8,60,335,58.7,335,48z"/>
		<path fill="#FFFFFF" d="M373.1,59c0,1,0,1.1-0.5,1.3c-2.6,1.3-6.4,1.7-9.5,1.7c-9.5,0-18-4.3-18-14.7c0-6,3.2-10.2,6.8-12.3
			c3.7-2.2,7.2-2.4,10.5-2.4c2.7,0,6.1,0.4,6.9,0.6c0.8,0.1,2.2,0.4,3.1,0.4c0.4,0,0.5,0.2,0.5,0.4c0,0.4-0.3,1.5-0.3,6.2
			c0,0.6-0.2,0.8-0.5,0.8c-0.3,0-0.3-0.2-0.4-0.5c-0.1-0.8-0.3-2-1.3-3.1c-1.1-1.2-4.1-2.9-8.4-2.9c-2.1,0-4.8,0-7.5,2.2
			c-2.2,1.8-3.6,4.5-3.6,9.1c0,8.1,5.2,13.9,13.5,13.9c1,0,1.8,0,2.7-0.4c0.6-0.3,0.7-0.7,0.7-1.3v-3.4c0-1.9,0-3.3,0-4.4
			c0-1.3-0.4-1.7-1.7-2c-0.3-0.1-1-0.1-1.5-0.1c-0.4,0-0.6-0.2-0.6-0.4c0-0.3,0.3-0.4,0.8-0.4c2,0,4.8,0.1,6,0.1
			c1.2,0,3.3-0.1,4.5-0.1c0.5,0,0.8,0,0.8,0.4c0,0.2-0.2,0.4-0.5,0.4c-0.3,0-0.6,0-1.1,0.1c-1.1,0.2-1.5,0.7-1.5,2
			c0,1.1,0,2.6,0,4.5V59z"/>
		<path fill="#FFFFFF" d="M383.9,44c0-5.7,0-6.8,0-7.9c-0.1-1.3-0.4-1.7-1.7-2c-0.3-0.1-1-0.1-1.5-0.1c-0.4,0-0.7-0.1-0.7-0.4
			c0-0.3,0.3-0.4,0.9-0.4c2,0,4.5,0.1,5.3,0.1c1.3,0,4.9-0.1,6-0.1c2.5,0,5.3,0.2,7.4,1.6c1.1,0.7,2.7,2.6,2.7,5.2
			c0,2.8-1.6,5.3-5.4,8.3c3.4,4.2,6.2,7.6,8.5,10c2.2,2.2,3.5,2.3,4.1,2.5c0.4,0.1,0.6,0.1,0.9,0.1c0.3,0,0.5,0.2,0.5,0.4
			c0,0.3-0.3,0.4-0.8,0.4h-3.7c-2.2,0-3.2-0.2-4.2-0.7c-1.7-0.8-3.1-2.6-5.3-5.5c-1.5-2-3.2-4.5-3.7-5.1c-0.2-0.2-0.4-0.3-0.7-0.3
			l-3.5-0.1c-0.2,0-0.3,0.1-0.3,0.3v0.5c0,3.5,0,6.4,0.2,8c0.1,1.1,0.3,1.8,1.5,2c0.6,0.1,1.4,0.1,1.9,0.1c0.3,0,0.5,0.2,0.5,0.4
			c0,0.3-0.3,0.4-0.8,0.4c-2.3,0-5.5-0.1-6-0.1c-0.8,0-3.2,0.1-4.8,0.1c-0.5,0-0.8-0.1-0.8-0.4c0-0.2,0.1-0.4,0.6-0.4
			c0.6,0,1,0,1.4-0.1c0.8-0.2,1-0.9,1.1-2c0.2-1.6,0.2-4.5,0.2-8V44z M388.9,46.9c0,0.4,0.1,0.5,0.4,0.7c0.8,0.3,2,0.4,3,0.4
			c1.5,0,2.1-0.1,2.7-0.6c1.2-0.8,2.5-2.5,2.5-5.6c0-5.3-3.6-6.7-5.9-6.7c-1,0-1.9,0-2.3,0.1c-0.3,0.1-0.4,0.2-0.4,0.5V46.9z"/>
		<path fill="#FFFFFF" d="M415.9,52.1c-0.2,0-0.3,0-0.4,0.3l-2.1,5c-0.4,0.9-0.6,1.9-0.6,2.3c0,0.7,0.4,1.1,1.5,1.1h0.6
			c0.5,0,0.6,0.2,0.6,0.4c0,0.3-0.2,0.4-0.6,0.4c-1.3,0-3.1-0.1-4.3-0.1c-0.4,0-2.5,0.1-4.5,0.1c-0.5,0-0.7-0.1-0.7-0.4
			c0-0.2,0.1-0.4,0.4-0.4c0.4,0,0.8,0,1.1,0c1.8-0.3,2.4-1.4,3.2-3.3l10.1-23.6c0.4-1.1,0.8-1.5,1.1-1.5c0.6,0,0.8,0.4,1.2,1.2
			c0.9,2.1,7.4,17.4,9.9,23.1c1.5,3.4,2.6,3.9,3.3,4c0.6,0.1,1,0.1,1.5,0.1c0.4,0,0.5,0.1,0.5,0.4c0,0.3-0.2,0.4-1.7,0.4
			c-1.4,0-4.2,0-7.5-0.1c-0.7,0-1.1,0-1.1-0.3c0-0.2,0.1-0.4,0.5-0.4c0.3,0,0.5-0.4,0.4-0.8l-3-7.5c-0.1-0.2-0.2-0.3-0.4-0.3H415.9z
			 M424.2,50c0.2,0,0.2-0.1,0.2-0.2l-3.7-9.5c0-0.1-0.1-0.4-0.2-0.4c-0.1,0-0.2,0.2-0.2,0.4l-3.8,9.5c-0.1,0.2,0,0.3,0.1,0.3H424.2z
			"/>
		<path fill="#FFFFFF" d="M444.4,33.3c0.1-0.6,0.4-1,0.8-1c0.4,0,0.7,0.2,1.2,1.2l10.4,20.9l10.4-21.2c0.3-0.6,0.7-0.9,1-0.9
			c0.3,0,0.8,0.4,0.9,1.2l3.5,23.2c0.4,2.3,0.7,3.4,1.9,3.7c1.1,0.3,1.7,0.4,2.2,0.4c0.4,0,0.6,0.1,0.6,0.4c0,0.3-0.4,0.4-1,0.4
			c-1,0-6.5-0.2-8-0.3c-0.9,0-1.1-0.2-1.1-0.4c0-0.2,0.2-0.3,0.4-0.4c0.2-0.1,0.3-0.5,0.2-1.6l-2.2-16.2h-0.1l-8.3,16.8
			c-0.9,1.8-1.1,2.1-1.5,2.1c-0.5,0-0.9-0.7-1.5-1.9c-0.9-1.7-4-7.5-4.5-8.5c-0.3-0.7-2.6-5.4-3.9-8h-0.1l-1.9,14.7
			c-0.1,0.7-0.1,1.1-0.1,1.8c0,0.7,0.5,1,1.2,1.1c0.7,0.1,1,0.2,1.4,0.2c0.4,0,0.6,0.2,0.6,0.4c0,0.4-0.4,0.4-0.9,0.4
			c-1.6,0-3.4-0.1-4.1-0.1c-0.7,0-2.6,0.1-3.8,0.1c-0.4,0-0.7-0.1-0.7-0.4c0-0.2,0.2-0.4,0.6-0.4c0.3,0,0.6,0,1.2-0.1
			c1.1-0.1,1.4-1.6,1.6-2.9L444.4,33.3z"/>
		<path fill="#FFFFFF" d="M481.6,61c-0.6-0.3-0.8-0.4-0.8-1.3c0-2,0.2-4.4,0.2-5c0-0.6,0.2-1,0.5-1c0.4,0,0.4,0.4,0.4,0.6
			c0,0.5,0.1,1.3,0.4,1.9c0.8,2.8,3.8,3.7,6.2,3.7c3.4,0,5.4-2.1,5.4-4.8c0-1.6-0.4-3.3-3.8-5.3l-2.3-1.3c-4.6-2.7-6.1-5.2-6.1-8.5
			c0-4.6,4.4-7.5,9.8-7.5c2.5,0,4.5,0.4,5.5,0.6c0.4,0.1,0.5,0.2,0.5,0.5c0,0.5-0.1,1.5-0.1,4.5c0,0.8-0.2,1.2-0.5,1.2
			c-0.3,0-0.4-0.2-0.4-0.7c0-0.4-0.2-1.5-1-2.5c-0.6-0.7-1.8-1.8-4.3-1.8c-2.8,0-5.3,1.5-5.3,4c0,1.7,0.6,3,4.1,4.9l1.6,0.9
			c5.1,2.8,6.7,5.7,6.7,9.1c0,2.8-1.1,5-3.9,7c-1.9,1.3-4.4,1.5-6.5,1.5C485.6,62,483.3,61.8,481.6,61z"/>
	</g>
	<g>
		<path fill="#FFFFFF" d="M288.8,89c-0.3-0.1-0.4-0.2-0.4-0.6c0-1,0.1-2.1,0.1-2.4c0-0.3,0.1-0.5,0.2-0.5c0.2,0,0.2,0.2,0.2,0.3
			c0,0.2,0.1,0.6,0.2,0.9c0.4,1.3,1.8,1.8,2.9,1.8c1.6,0,2.6-1,2.6-2.3c0-0.8-0.2-1.5-1.8-2.5l-1.1-0.6c-2.2-1.3-2.9-2.5-2.9-4
			c0-2.2,2.1-3.6,4.6-3.6c1.2,0,2.1,0.2,2.6,0.3c0.2,0,0.3,0.1,0.3,0.2c0,0.2-0.1,0.7-0.1,2.1c0,0.4-0.1,0.6-0.2,0.6
			c-0.1,0-0.2-0.1-0.2-0.3c0-0.2-0.1-0.7-0.5-1.2c-0.3-0.3-0.9-0.8-2.1-0.8c-1.3,0-2.5,0.7-2.5,1.9c0,0.8,0.3,1.4,1.9,2.3l0.8,0.4
			c2.4,1.3,3.2,2.7,3.2,4.3c0,1.3-0.5,2.4-1.8,3.3c-0.9,0.6-2.1,0.7-3.1,0.7C290.7,89.5,289.6,89.4,288.8,89z"/>
		<path fill="#FFFFFF" d="M301.9,84.8c-0.1,0-0.1,0-0.2,0.1l-1,2.4c-0.2,0.4-0.3,0.9-0.3,1.1c0,0.3,0.2,0.5,0.7,0.5h0.3
			c0.2,0,0.3,0.1,0.3,0.2c0,0.1-0.1,0.2-0.3,0.2c-0.6,0-1.5-0.1-2.1-0.1c-0.2,0-1.2,0.1-2.1,0.1c-0.2,0-0.3,0-0.3-0.2
			c0-0.1,0.1-0.2,0.2-0.2c0.2,0,0.4,0,0.5,0c0.8-0.1,1.2-0.7,1.5-1.6l4.8-11.2c0.2-0.5,0.4-0.7,0.5-0.7c0.3,0,0.4,0.2,0.5,0.6
			c0.4,1,3.5,8.3,4.7,11c0.7,1.6,1.2,1.8,1.6,1.9c0.3,0,0.5,0.1,0.7,0.1c0.2,0,0.3,0.1,0.3,0.2c0,0.1-0.1,0.2-0.8,0.2
			c-0.6,0-2,0-3.5,0c-0.3,0-0.5,0-0.5-0.1c0-0.1,0-0.2,0.2-0.2c0.1,0,0.3-0.2,0.2-0.4l-1.4-3.6c0-0.1-0.1-0.1-0.2-0.1H301.9z
			 M305.8,83.8c0.1,0,0.1,0,0.1-0.1l-1.7-4.5c0-0.1,0-0.2-0.1-0.2c-0.1,0-0.1,0.1-0.1,0.2l-1.8,4.5c0,0.1,0,0.1,0.1,0.1H305.8z"/>
		<path fill="#FFFFFF" d="M314.6,87.5c-1.8-1.5-2.3-3.5-2.3-5.3c0-1.2,0.4-3.3,2.2-4.9c1.3-1.2,3.1-1.9,5.8-1.9
			c1.2,0,1.8,0.1,2.7,0.2c0.7,0.1,1.3,0.2,1.8,0.3c0.2,0,0.3,0.1,0.3,0.2c0,0.1,0,0.4-0.1,1c0,0.6,0,1.6-0.1,1.9
			c0,0.3-0.1,0.4-0.3,0.4c-0.1,0-0.2-0.1-0.2-0.4c0-0.6-0.3-1.2-0.7-1.7c-0.6-0.6-1.9-1-3.6-1c-1.6,0-2.6,0.3-3.5,1
			c-1.4,1.2-1.7,2.9-1.7,4.6c0,4.2,3.3,6.2,5.7,6.2c1.6,0,2.5-0.1,3.3-0.9c0.3-0.4,0.6-0.9,0.6-1.2c0-0.3,0.1-0.4,0.2-0.4
			c0.1,0,0.2,0.2,0.2,0.3c0,0.2-0.2,1.8-0.4,2.4c-0.1,0.3-0.2,0.4-0.5,0.5c-0.7,0.3-2.1,0.4-3.3,0.4
			C318.5,89.5,316.3,88.9,314.6,87.5z"/>
		<path fill="#FFFFFF" d="M329.1,80.9c0-2.7,0-3.2,0-3.8c0-0.6-0.2-0.8-0.8-1c-0.1,0-0.5-0.1-0.7-0.1c-0.2,0-0.3-0.1-0.3-0.2
			c0-0.1,0.1-0.2,0.4-0.2c1,0,2.1,0,2.5,0c0.6,0,2.3,0,2.9,0c1.2,0,2.5,0.1,3.5,0.8c0.5,0.4,1.3,1.3,1.3,2.4c0,1.3-0.8,2.5-2.6,3.9
			c1.6,2,2.9,3.6,4,4.7c1,1,1.7,1.1,2,1.2c0.2,0,0.3,0,0.4,0c0.1,0,0.2,0.1,0.2,0.2c0,0.1-0.1,0.2-0.4,0.2h-1.8c-1,0-1.5-0.1-2-0.4
			c-0.8-0.4-1.5-1.2-2.5-2.6c-0.7-1-1.5-2.2-1.7-2.4c-0.1-0.1-0.2-0.1-0.3-0.1l-1.7,0c-0.1,0-0.1,0-0.1,0.1v0.3c0,1.7,0,3,0.1,3.8
			c0.1,0.5,0.1,0.9,0.7,0.9c0.3,0,0.7,0.1,0.9,0.1c0.1,0,0.2,0.1,0.2,0.2c0,0.1-0.1,0.2-0.4,0.2c-1.1,0-2.6-0.1-2.9-0.1
			c-0.4,0-1.5,0.1-2.3,0.1c-0.2,0-0.4-0.1-0.4-0.2c0-0.1,0.1-0.2,0.3-0.2c0.3,0,0.5,0,0.6-0.1c0.4-0.1,0.5-0.4,0.5-0.9
			c0.1-0.8,0.1-2.2,0.1-3.8V80.9z M331.5,82.3c0,0.2,0,0.3,0.2,0.3c0.4,0.1,0.9,0.2,1.4,0.2c0.7,0,1-0.1,1.3-0.3
			c0.6-0.4,1.2-1.2,1.2-2.6c0-2.5-1.7-3.2-2.8-3.2c-0.5,0-0.9,0-1.1,0.1c-0.1,0-0.2,0.1-0.2,0.3V82.3z"/>
		<path fill="#FFFFFF" d="M344.3,84.8c-0.1,0-0.1,0-0.2,0.1l-1,2.4c-0.2,0.4-0.3,0.9-0.3,1.1c0,0.3,0.2,0.5,0.7,0.5h0.3
			c0.2,0,0.3,0.1,0.3,0.2c0,0.1-0.1,0.2-0.3,0.2c-0.6,0-1.5-0.1-2.1-0.1c-0.2,0-1.2,0.1-2.1,0.1c-0.2,0-0.3,0-0.3-0.2
			c0-0.1,0.1-0.2,0.2-0.2c0.2,0,0.4,0,0.5,0c0.8-0.1,1.2-0.7,1.5-1.6l4.8-11.2c0.2-0.5,0.4-0.7,0.5-0.7c0.3,0,0.4,0.2,0.5,0.6
			c0.4,1,3.5,8.3,4.7,11c0.7,1.6,1.2,1.8,1.6,1.9c0.3,0,0.5,0.1,0.7,0.1c0.2,0,0.3,0.1,0.3,0.2c0,0.1-0.1,0.2-0.8,0.2
			c-0.6,0-2,0-3.5,0c-0.3,0-0.5,0-0.5-0.1c0-0.1,0-0.2,0.2-0.2c0.1,0,0.3-0.2,0.2-0.4l-1.4-3.6c0-0.1-0.1-0.1-0.2-0.1H344.3z
			 M348.2,83.8c0.1,0,0.1,0,0.1-0.1l-1.7-4.5c0-0.1,0-0.2-0.1-0.2c-0.1,0-0.1,0.1-0.1,0.2l-1.8,4.5c0,0.1,0,0.1,0.1,0.1H348.2z"/>
		<path fill="#FFFFFF" d="M357.8,75.8c0-0.3,0.2-0.5,0.4-0.5c0.2,0,0.3,0.1,0.6,0.6l4.9,9.9l4.9-10c0.1-0.3,0.3-0.4,0.5-0.4
			c0.1,0,0.4,0.2,0.4,0.6l1.7,11c0.2,1.1,0.3,1.6,0.9,1.8c0.5,0.1,0.8,0.2,1,0.2c0.2,0,0.3,0.1,0.3,0.2c0,0.1-0.2,0.2-0.5,0.2
			c-0.5,0-3.1-0.1-3.8-0.1c-0.4,0-0.5-0.1-0.5-0.2c0-0.1,0.1-0.1,0.2-0.2c0.1,0,0.1-0.3,0.1-0.8l-1-7.7h-0.1l-4,8
			c-0.4,0.8-0.5,1-0.7,1c-0.2,0-0.4-0.4-0.7-0.9c-0.4-0.8-1.9-3.5-2.1-4c-0.1-0.3-1.2-2.6-1.8-3.8h-0.1l-0.9,7
			c0,0.3-0.1,0.5-0.1,0.8c0,0.3,0.3,0.5,0.6,0.5c0.3,0.1,0.5,0.1,0.6,0.1c0.2,0,0.3,0.1,0.3,0.2c0,0.2-0.2,0.2-0.4,0.2
			c-0.8,0-1.6-0.1-1.9-0.1c-0.4,0-1.2,0.1-1.8,0.1c-0.2,0-0.3,0-0.3-0.2c0-0.1,0.1-0.2,0.3-0.2c0.1,0,0.3,0,0.6,0
			c0.5-0.1,0.7-0.8,0.8-1.4L357.8,75.8z"/>
		<path fill="#FFFFFF" d="M376.5,80.9c0-2.7,0-3.2,0-3.8c0-0.6-0.2-0.8-0.8-1c-0.1,0-0.5-0.1-0.7-0.1c-0.2,0-0.3-0.1-0.3-0.2
			c0-0.1,0.1-0.2,0.4-0.2c1,0,2.1,0,2.7,0c0.6,0,4.7,0,5,0c0.3,0,0.6-0.1,0.8-0.1c0.1,0,0.2-0.1,0.3-0.1c0.1,0,0.1,0.1,0.1,0.2
			c0,0.1-0.1,0.3-0.1,1.2c0,0.2-0.1,1-0.1,1.2c0,0.1-0.1,0.3-0.2,0.3c-0.1,0-0.1-0.1-0.1-0.2c0-0.1,0-0.4-0.1-0.6
			c-0.1-0.3-0.3-0.6-1.2-0.6c-0.3,0-2.5-0.1-2.9-0.1c-0.1,0-0.1,0.1-0.1,0.2v4.4c0,0.1,0,0.2,0.1,0.2c0.4,0,2.8,0,3.2,0
			c0.4,0,0.7-0.1,0.9-0.3c0.1-0.1,0.2-0.2,0.3-0.2c0.1,0,0.1,0.1,0.1,0.2s0,0.4-0.1,1.3c0,0.4-0.1,1.1-0.1,1.2c0,0.1,0,0.4-0.2,0.4
			c-0.1,0-0.2-0.1-0.2-0.1c0-0.2,0-0.4-0.1-0.6c-0.1-0.4-0.3-0.6-1-0.7c-0.3,0-2.4-0.1-2.9-0.1c-0.1,0-0.1,0.1-0.1,0.2v1.4
			c0,0.6,0,2.1,0,2.6c0,1.2,0.6,1.5,2.5,1.5c0.5,0,1.3,0,1.7-0.2c0.5-0.2,0.7-0.6,0.8-1.3c0-0.2,0.1-0.3,0.2-0.3
			c0.1,0,0.2,0.2,0.2,0.4c0,0.4-0.1,1.6-0.3,2c-0.1,0.5-0.3,0.5-1,0.5c-1.4,0-2.5,0-3.4-0.1c-0.9,0-1.6,0-2.1,0c-0.2,0-0.6,0-1,0
			c-0.4,0-0.9,0-1.3,0c-0.2,0-0.4-0.1-0.4-0.2c0-0.1,0.1-0.2,0.3-0.2c0.3,0,0.5,0,0.6-0.1c0.4-0.1,0.5-0.4,0.5-0.9
			c0.1-0.8,0.1-2.2,0.1-3.8V80.9z"/>
		<path fill="#FFFFFF" d="M389.2,86.8c0,1.4,0.3,1.8,0.6,1.9c0.3,0.1,0.7,0.1,1,0.1c0.2,0,0.3,0.1,0.3,0.2c0,0.1-0.2,0.2-0.4,0.2
			c-1.2,0-2.1-0.1-2.4-0.1c-0.2,0-1,0.1-2,0.1c-0.3,0-0.4,0-0.4-0.2c0-0.1,0.1-0.2,0.3-0.2c0.3,0,0.6,0,0.8-0.1
			c0.5-0.1,0.5-0.6,0.6-2.2l0.2-10.6c0-0.4,0.1-0.6,0.3-0.6c0.2,0,0.5,0.3,0.8,0.6c0.2,0.2,3,3.1,5.7,5.7c1.3,1.2,3.7,3.7,4,4h0.1
			l-0.2-7.9c0-1.1-0.2-1.4-0.6-1.6c-0.3-0.1-0.7-0.1-1-0.1c-0.2,0-0.3-0.1-0.3-0.2c0-0.1,0.2-0.2,0.5-0.2c1,0,1.9,0,2.3,0
			c0.2,0,0.9,0,1.8,0c0.3,0,0.4,0,0.4,0.2c0,0.1-0.1,0.2-0.3,0.2c-0.2,0-0.3,0-0.6,0.1c-0.5,0.1-0.6,0.5-0.7,1.5l-0.2,11.2
			c0,0.4-0.1,0.6-0.3,0.6c-0.3,0-0.6-0.2-0.8-0.4c-1.2-1.1-3.5-3.3-5.4-5.1c-2-1.9-4-4.1-4.3-4.4H389L389.2,86.8z"/>
		<path fill="#FFFFFF" d="M408.2,76.9l-2.7,0.1c-1.1,0-1.5,0.1-1.8,0.5c-0.2,0.3-0.3,0.5-0.3,0.6c0,0.1-0.1,0.2-0.2,0.2
			c-0.1,0-0.2-0.1-0.2-0.3c0-0.3,0.4-2,0.4-2.2c0-0.2,0.1-0.3,0.2-0.3c0.1,0,0.3,0.1,0.8,0.2c0.5,0.1,1.2,0.1,1.8,0.1h7.5
			c0.6,0,1,0,1.3-0.1c0.3,0,0.4-0.1,0.5-0.1c0.1,0,0.1,0.1,0.1,0.4c0,0.4,0,1.7,0,2.2c0,0.2-0.1,0.3-0.2,0.3c-0.1,0-0.2-0.1-0.2-0.4
			l0-0.2c0-0.5-0.5-1-2.2-1l-2.3,0v7.2c0,1.6,0,3,0.1,3.8c0.1,0.5,0.2,0.8,0.7,0.9c0.3,0,0.7,0.1,0.9,0.1c0.2,0,0.3,0.1,0.3,0.2
			c0,0.1-0.1,0.2-0.4,0.2c-1.2,0-2.4-0.1-3-0.1c-0.4,0-1.7,0.1-2.4,0.1c-0.2,0-0.4-0.1-0.4-0.2c0-0.1,0.1-0.2,0.3-0.2
			c0.3,0,0.5,0,0.6-0.1c0.4-0.1,0.5-0.4,0.5-0.9c0.1-0.8,0.1-2.2,0.1-3.8V76.9z"/>
		<path fill="#FFFFFF" d="M416.7,82.5c0-3,2.1-7,7.7-7c4.6,0,7.5,2.6,7.5,6.7c0,4.1-3,7.3-7.7,7.3C418.9,89.5,416.7,85.7,416.7,82.5
			z M429.2,82.8c0-3.9-2.4-6.4-5.3-6.4c-2.1,0-4.5,1.1-4.5,5.5c0,3.7,2.1,6.6,5.6,6.6C426.3,88.5,429.2,87.9,429.2,82.8z"/>
		<path fill="#FFFFFF" d="M441.3,89c-0.3-0.1-0.4-0.2-0.4-0.6c0-1,0.1-2.1,0.1-2.4c0-0.3,0.1-0.5,0.2-0.5c0.2,0,0.2,0.2,0.2,0.3
			c0,0.2,0.1,0.6,0.2,0.9c0.4,1.3,1.8,1.8,2.9,1.8c1.6,0,2.6-1,2.6-2.3c0-0.8-0.2-1.5-1.8-2.5l-1.1-0.6c-2.2-1.3-2.9-2.5-2.9-4
			c0-2.2,2.1-3.6,4.6-3.6c1.2,0,2.1,0.2,2.6,0.3c0.2,0,0.3,0.1,0.3,0.2c0,0.2-0.1,0.7-0.1,2.1c0,0.4-0.1,0.6-0.2,0.6
			c-0.1,0-0.2-0.1-0.2-0.3c0-0.2-0.1-0.7-0.5-1.2c-0.3-0.3-0.9-0.8-2.1-0.8c-1.3,0-2.5,0.7-2.5,1.9c0,0.8,0.3,1.4,1.9,2.3l0.8,0.4
			c2.4,1.3,3.2,2.7,3.2,4.3c0,1.3-0.5,2.4-1.8,3.3c-0.9,0.6-2.1,0.7-3.1,0.7C443.2,89.5,442.1,89.4,441.3,89z"/>
		<path fill="#FFFFFF" d="M456,76.9l-2.7,0.1c-1.1,0-1.5,0.1-1.8,0.5c-0.2,0.3-0.3,0.5-0.3,0.6c0,0.1-0.1,0.2-0.2,0.2
			c-0.1,0-0.2-0.1-0.2-0.3c0-0.3,0.4-2,0.4-2.2c0-0.2,0.1-0.3,0.2-0.3c0.1,0,0.3,0.1,0.8,0.2c0.5,0.1,1.2,0.1,1.8,0.1h7.5
			c0.6,0,1,0,1.3-0.1c0.3,0,0.4-0.1,0.5-0.1c0.1,0,0.1,0.1,0.1,0.4c0,0.4,0,1.7,0,2.2c0,0.2-0.1,0.3-0.2,0.3c-0.1,0-0.2-0.1-0.2-0.4
			l0-0.2c0-0.5-0.5-1-2.2-1l-2.3,0v7.2c0,1.6,0,3,0.1,3.8c0.1,0.5,0.2,0.8,0.7,0.9c0.3,0,0.7,0.1,0.9,0.1c0.2,0,0.3,0.1,0.3,0.2
			c0,0.1-0.1,0.2-0.4,0.2c-1.2,0-2.4-0.1-3-0.1c-0.4,0-1.7,0.1-2.4,0.1c-0.2,0-0.4-0.1-0.4-0.2c0-0.1,0.1-0.2,0.3-0.2
			c0.3,0,0.5,0,0.6-0.1c0.4-0.1,0.5-0.4,0.5-0.9c0.1-0.8,0.1-2.2,0.1-3.8V76.9z"/>
		<path fill="#FFFFFF" d="M466.4,84.8c-0.1,0-0.1,0-0.2,0.1l-1,2.4c-0.2,0.4-0.3,0.9-0.3,1.1c0,0.3,0.2,0.5,0.7,0.5h0.3
			c0.2,0,0.3,0.1,0.3,0.2c0,0.1-0.1,0.2-0.3,0.2c-0.6,0-1.5-0.1-2.1-0.1c-0.2,0-1.2,0.1-2.1,0.1c-0.2,0-0.3,0-0.3-0.2
			c0-0.1,0.1-0.2,0.2-0.2c0.2,0,0.4,0,0.5,0c0.8-0.1,1.2-0.7,1.5-1.6l4.8-11.2c0.2-0.5,0.4-0.7,0.5-0.7c0.3,0,0.4,0.2,0.5,0.6
			c0.4,1,3.5,8.3,4.7,11c0.7,1.6,1.2,1.8,1.6,1.9c0.3,0,0.5,0.1,0.7,0.1c0.2,0,0.3,0.1,0.3,0.2c0,0.1-0.1,0.2-0.8,0.2
			c-0.6,0-2,0-3.5,0c-0.3,0-0.5,0-0.5-0.1c0-0.1,0-0.2,0.2-0.2c0.1,0,0.3-0.2,0.2-0.4l-1.4-3.6c0-0.1-0.1-0.1-0.2-0.1H466.4z
			 M470.3,83.8c0.1,0,0.1,0,0.1-0.1l-1.7-4.5c0-0.1,0-0.2-0.1-0.2c-0.1,0-0.1,0.1-0.1,0.2l-1.8,4.5c0,0.1,0,0.1,0.1,0.1H470.3z"/>
		<path fill="#FFFFFF" d="M479.9,76.9l-2.7,0.1c-1.1,0-1.5,0.1-1.8,0.5c-0.2,0.3-0.3,0.5-0.3,0.6c0,0.1-0.1,0.2-0.2,0.2
			c-0.1,0-0.2-0.1-0.2-0.3c0-0.3,0.4-2,0.4-2.2c0-0.2,0.1-0.3,0.2-0.3c0.1,0,0.3,0.1,0.8,0.2c0.5,0.1,1.2,0.1,1.8,0.1h7.5
			c0.6,0,1,0,1.3-0.1c0.3,0,0.4-0.1,0.5-0.1c0.1,0,0.1,0.1,0.1,0.4c0,0.4,0,1.7,0,2.2c0,0.2-0.1,0.3-0.2,0.3c-0.1,0-0.2-0.1-0.2-0.4
			l0-0.2c0-0.5-0.5-1-2.2-1l-2.3,0v7.2c0,1.6,0,3,0.1,3.8c0.1,0.5,0.2,0.8,0.7,0.9c0.3,0,0.7,0.1,0.9,0.1c0.2,0,0.3,0.1,0.3,0.2
			c0,0.1-0.1,0.2-0.4,0.2c-1.2,0-2.4-0.1-3-0.1c-0.4,0-1.7,0.1-2.4,0.1c-0.2,0-0.4-0.1-0.4-0.2c0-0.1,0.1-0.2,0.3-0.2
			c0.3,0,0.5,0,0.6-0.1c0.4-0.1,0.5-0.4,0.5-0.9c0.1-0.8,0.1-2.2,0.1-3.8V76.9z"/>
		<path fill="#FFFFFF" d="M490.7,80.9c0-2.7,0-3.2,0-3.8c0-0.6-0.2-0.8-0.8-1c-0.1,0-0.5-0.1-0.7-0.1c-0.2,0-0.3-0.1-0.3-0.2
			c0-0.1,0.1-0.2,0.4-0.2c1,0,2.1,0,2.7,0c0.6,0,4.7,0,5,0c0.3,0,0.6-0.1,0.8-0.1c0.1,0,0.2-0.1,0.3-0.1c0.1,0,0.1,0.1,0.1,0.2
			c0,0.1-0.1,0.3-0.1,1.2c0,0.2-0.1,1-0.1,1.2c0,0.1-0.1,0.3-0.2,0.3c-0.1,0-0.1-0.1-0.1-0.2c0-0.1,0-0.4-0.1-0.6
			c-0.1-0.3-0.3-0.6-1.2-0.6c-0.3,0-2.5-0.1-2.9-0.1c-0.1,0-0.1,0.1-0.1,0.2v4.4c0,0.1,0,0.2,0.1,0.2c0.4,0,2.8,0,3.2,0
			c0.4,0,0.7-0.1,0.9-0.3c0.1-0.1,0.2-0.2,0.3-0.2c0.1,0,0.1,0.1,0.1,0.2s0,0.4-0.1,1.3c0,0.4-0.1,1.1-0.1,1.2c0,0.1,0,0.4-0.2,0.4
			c-0.1,0-0.2-0.1-0.2-0.1c0-0.2,0-0.4-0.1-0.6c-0.1-0.4-0.3-0.6-1-0.7c-0.3,0-2.4-0.1-2.9-0.1c-0.1,0-0.1,0.1-0.1,0.2v1.4
			c0,0.6,0,2.1,0,2.6c0,1.2,0.6,1.5,2.5,1.5c0.5,0,1.3,0,1.7-0.2c0.5-0.2,0.7-0.6,0.8-1.3c0-0.2,0.1-0.3,0.2-0.3
			c0.1,0,0.2,0.2,0.2,0.4c0,0.4-0.1,1.6-0.3,2c-0.1,0.5-0.3,0.5-1,0.5c-1.4,0-2.5,0-3.4-0.1c-0.9,0-1.6,0-2.1,0c-0.2,0-0.6,0-1,0
			c-0.4,0-0.9,0-1.3,0c-0.2,0-0.4-0.1-0.4-0.2c0-0.1,0.1-0.2,0.3-0.2c0.3,0,0.5,0,0.6-0.1c0.4-0.1,0.5-0.4,0.5-0.9
			c0.1-0.8,0.1-2.2,0.1-3.8V80.9z"/>
	</g>
</g>
</svg>
