<?xml version="1.0" encoding="utf-8"?>
<!-- Generator: Adobe Illustrator 17.1.0, SVG Export Plug-In . SVG Version: 6.00 Build 0)  -->
<!DOCTYPE svg PUBLIC "-//W3C//DTD SVG 1.1//EN" "http://www.w3.org/Graphics/SVG/1.1/DTD/svg11.dtd">
<svg version="1.1" id="Layer_1" xmlns="http://www.w3.org/2000/svg" xmlns:xlink="http://www.w3.org/1999/xlink" x="0px" y="0px"
	 viewBox="0 0 325 325" enable-background="new 0 0 325 325" xml:space="preserve">
<g>
	<g>
		<path fill="#FFFFFF" d="M38.6,116.6v-0.1c34.2-0.4,66.1,17,94.2,47.8c28.2,30.9,60.4,48.5,94.6,48.1c28.5-0.3,55.5-13.1,79.8-35.6
			v-75.4c0-47.6-38.6-86.2-86.2-86.2H106.2C58.6,15.2,20,53.7,20,101.3v17.3C26.1,117.4,32.3,116.7,38.6,116.6z"/>
		<path fill="#FFFFFF" d="M185.4,238.2c-28.2-30.7-60-48.1-94.2-47.6c0,0-32.6-1.3-71.1,27.3c0.9,46.8,39.1,84.5,86.1,84.5h114.9
			c18.8,0,36.2-6,50.4-16.3C240.4,283.7,211.2,266.6,185.4,238.2z"/>
	</g>
</g>
</svg>
